<svg xmlns="http://www.w3.org/2000/svg" xmlns:xlink="http://www.w3.org/1999/xlink" width="500" zoomAndPan="magnify" viewBox="0 0 375 374.999991" height="500" preserveAspectRatio="xMidYMid meet" version="1.0"><defs><g/><clipPath id="1abe3cf12a"><path d="M 96.574219 130.53125 L 200.824219 130.53125 L 200.824219 222 L 96.574219 222 Z M 96.574219 130.53125 " clip-rule="nonzero"/></clipPath><clipPath id="c7b87203cc"><path d="M 169.007812 169.460938 L 228 169.460938 L 228 218 L 169.007812 218 Z M 169.007812 169.460938 " clip-rule="nonzero"/></clipPath><clipPath id="a2b16fe511"><path d="M 169.007812 186 L 232.757812 186 L 232.757812 221.960938 L 169.007812 221.960938 Z M 169.007812 186 " clip-rule="nonzero"/></clipPath></defs><rect x="-37.5" width="450" fill="#ffffff" y="-37.499999" height="449.999989" fill-opacity="1"/><rect x="-37.5" width="450" fill="#ffffff" y="-37.499999" height="449.999989" fill-opacity="1"/><path fill="#cc0909" d="M 129.136719 189.585938 L 99.472656 189.585938 L 99.472656 159.167969 L 129.128906 159.167969 C 126.125 163.484375 124.367188 168.726562 124.367188 174.375 C 124.367188 179.910156 126.09375 185.195312 129.136719 189.585938 Z M 129.136719 189.585938 " fill-opacity="1" fill-rule="nonzero"/><path fill="#000000" d="M 122.617188 137.242188 C 122.617188 137.90625 121.964844 138.445312 121.171875 138.445312 L 109.054688 138.445312 C 108.261719 138.445312 107.609375 137.90625 107.609375 137.242188 L 107.609375 134.988281 C 107.609375 134.328125 108.261719 133.785156 109.054688 133.785156 L 121.171875 133.785156 C 121.96875 133.785156 122.617188 134.328125 122.617188 134.988281 Z M 122.617188 137.242188 " fill-opacity="1" fill-rule="nonzero"/><path fill="#000000" d="M 115.503906 153.070312 C 115.503906 153.46875 115.179688 153.792969 114.78125 153.792969 L 104.65625 153.792969 C 104.257812 153.792969 103.933594 153.46875 103.933594 153.070312 L 103.933594 148.722656 C 103.933594 148.324219 104.257812 148 104.65625 148 L 114.78125 148 C 115.179688 148 115.503906 148.324219 115.503906 148.722656 Z M 115.503906 153.070312 " fill-opacity="1" fill-rule="nonzero"/><g clip-path="url(#1abe3cf12a)"><path fill="#000000" d="M 198.007812 130.5625 L 188.9375 140.757812 L 168.195312 140.757812 L 166.359375 134.386719 C 165.960938 132.992188 164.570312 131.945312 163.125 131.945312 L 138.890625 131.945312 C 137.445312 131.945312 136.054688 132.992188 135.65625 134.382812 L 133.820312 140.757812 L 103.8125 140.757812 C 99.824219 140.757812 96.578125 144.003906 96.578125 148 L 96.578125 200.753906 C 96.578125 204.746094 99.824219 207.996094 103.8125 207.996094 L 129.105469 207.996094 L 118.894531 219.472656 L 121.714844 221.988281 L 200.828125 133.078125 Z M 144.875 188.820312 C 144.738281 188.753906 144.601562 188.691406 144.472656 188.617188 C 136.769531 184.46875 133.882812 174.859375 138.023438 167.144531 C 141.285156 161.074219 147.925781 157.996094 154.363281 158.980469 C 148.648438 159.171875 143.1875 162.308594 140.285156 167.714844 C 136.359375 175.023438 138.460938 183.964844 144.875 188.820312 Z M 167.96875 164.320312 C 164.535156 158.523438 158.222656 154.636719 151.007812 154.640625 C 140.121094 154.640625 131.296875 163.476562 131.296875 174.375 C 131.296875 182.414062 136.09375 189.328125 142.976562 192.40625 L 140.183594 195.546875 C 132.300781 191.496094 127.261719 183.296875 127.261719 174.375 C 127.261719 161.261719 137.914062 150.59375 151.007812 150.59375 C 159.007812 150.59375 166.339844 154.539062 170.765625 161.179688 Z M 151.007812 147.699219 C 141.957031 147.699219 133.945312 152.238281 129.128906 159.167969 C 126.125 163.484375 124.367188 168.726562 124.367188 174.375 C 124.367188 179.90625 126.09375 185.195312 129.136719 189.585938 C 131.457031 192.933594 134.539062 195.761719 138.199219 197.773438 L 131.683594 205.097656 L 103.8125 205.097656 C 101.417969 205.097656 99.472656 203.148438 99.472656 200.753906 L 99.472656 148 C 99.472656 145.601562 101.417969 143.652344 103.8125 143.652344 L 135.996094 143.652344 L 138.433594 135.1875 C 138.476562 135.042969 138.742188 134.84375 138.890625 134.84375 L 163.121094 134.84375 C 163.273438 134.84375 163.539062 135.042969 163.578125 135.1875 L 166.019531 143.652344 L 186.359375 143.652344 L 172.746094 158.953125 C 167.746094 151.878906 159.730469 147.699219 151.007812 147.699219 Z M 151.007812 147.699219 " fill-opacity="1" fill-rule="nonzero"/></g><g fill="#33333b" fill-opacity="1"><g transform="translate(189.478436, 164.806615)"><g><path d="M 12.828125 -10.5 C 12.828125 -8.78125 12.320312 -7.453125 11.3125 -6.515625 C 10.300781 -5.578125 8.859375 -5.109375 6.984375 -5.109375 L 5.828125 -5.109375 L 5.828125 0 L 1.65625 0 L 1.65625 -15.390625 L 6.984375 -15.390625 C 8.929688 -15.390625 10.390625 -14.960938 11.359375 -14.109375 C 12.335938 -13.265625 12.828125 -12.0625 12.828125 -10.5 Z M 5.828125 -8.5 L 6.578125 -8.5 C 7.203125 -8.5 7.695312 -8.671875 8.0625 -9.015625 C 8.4375 -9.367188 8.625 -9.851562 8.625 -10.46875 C 8.625 -11.507812 8.046875 -12.03125 6.890625 -12.03125 L 5.828125 -12.03125 Z M 5.828125 -8.5 "/></g></g></g><g fill="#33333b" fill-opacity="1"><g transform="translate(205.02578, 164.806615)"><g><path d="M 14.859375 0 L 10.671875 0 L 10.671875 -6.28125 L 5.84375 -6.28125 L 5.84375 0 L 1.65625 0 L 1.65625 -15.390625 L 5.84375 -15.390625 L 5.84375 -9.6875 L 10.671875 -9.6875 L 10.671875 -15.390625 L 14.859375 -15.390625 Z M 14.859375 0 "/></g></g></g><g fill="#33333b" fill-opacity="1"><g transform="translate(223.469211, 164.806615)"><g><path d="M 16.0625 -7.71875 C 16.0625 -5.125 15.425781 -3.15625 14.15625 -1.8125 C 12.882812 -0.46875 11.023438 0.203125 8.578125 0.203125 C 6.160156 0.203125 4.304688 -0.472656 3.015625 -1.828125 C 1.734375 -3.179688 1.09375 -5.148438 1.09375 -7.734375 C 1.09375 -10.296875 1.734375 -12.253906 3.015625 -13.609375 C 4.296875 -14.960938 6.160156 -15.640625 8.609375 -15.640625 C 11.054688 -15.640625 12.910156 -14.96875 14.171875 -13.625 C 15.429688 -12.28125 16.0625 -10.3125 16.0625 -7.71875 Z M 5.46875 -7.71875 C 5.46875 -4.738281 6.503906 -3.25 8.578125 -3.25 C 9.628906 -3.25 10.410156 -3.609375 10.921875 -4.328125 C 11.429688 -5.054688 11.6875 -6.1875 11.6875 -7.71875 C 11.6875 -9.25 11.425781 -10.378906 10.90625 -11.109375 C 10.394531 -11.847656 9.628906 -12.21875 8.609375 -12.21875 C 6.515625 -12.21875 5.46875 -10.71875 5.46875 -7.71875 Z M 5.46875 -7.71875 "/></g></g></g><g fill="#33333b" fill-opacity="1"><g transform="translate(242.576108, 164.806615)"><g><path d="M 8.453125 0 L 4.296875 0 L 4.296875 -11.984375 L 0.53125 -11.984375 L 0.53125 -15.390625 L 12.203125 -15.390625 L 12.203125 -11.984375 L 8.453125 -11.984375 Z M 8.453125 0 "/></g></g></g><g fill="#33333b" fill-opacity="1"><g transform="translate(257.238832, 164.806615)"><g><path d="M 16.0625 -7.71875 C 16.0625 -5.125 15.425781 -3.15625 14.15625 -1.8125 C 12.882812 -0.46875 11.023438 0.203125 8.578125 0.203125 C 6.160156 0.203125 4.304688 -0.472656 3.015625 -1.828125 C 1.734375 -3.179688 1.09375 -5.148438 1.09375 -7.734375 C 1.09375 -10.296875 1.734375 -12.253906 3.015625 -13.609375 C 4.296875 -14.960938 6.160156 -15.640625 8.609375 -15.640625 C 11.054688 -15.640625 12.910156 -14.96875 14.171875 -13.625 C 15.429688 -12.28125 16.0625 -10.3125 16.0625 -7.71875 Z M 5.46875 -7.71875 C 5.46875 -4.738281 6.503906 -3.25 8.578125 -3.25 C 9.628906 -3.25 10.410156 -3.609375 10.921875 -4.328125 C 11.429688 -5.054688 11.6875 -6.1875 11.6875 -7.71875 C 11.6875 -9.25 11.425781 -10.378906 10.90625 -11.109375 C 10.394531 -11.847656 9.628906 -12.21875 8.609375 -12.21875 C 6.515625 -12.21875 5.46875 -10.71875 5.46875 -7.71875 Z M 5.46875 -7.71875 "/></g></g></g><g clip-path="url(#c7b87203cc)"><path fill="#000000" d="M 170.191406 217.933594 C 169.621094 217.933594 169.160156 217.472656 169.160156 216.902344 L 169.160156 175.351562 C 169.160156 172.226562 171.703125 169.683594 174.824219 169.683594 L 189.730469 169.683594 C 192.585938 169.683594 194.957031 171.808594 195.339844 174.566406 L 220.742188 174.566406 C 224.199219 174.566406 227.015625 177.382812 227.015625 180.847656 L 227.015625 188.003906 C 227.015625 188.574219 226.554688 189.035156 225.984375 189.035156 C 225.417969 189.035156 224.957031 188.574219 224.957031 188.003906 L 224.957031 180.847656 C 224.957031 178.519531 223.066406 176.625 220.742188 176.625 L 194.367188 176.625 C 193.796875 176.625 193.335938 176.164062 193.335938 175.59375 L 193.335938 175.351562 C 193.335938 173.359375 191.71875 171.742188 189.730469 171.742188 L 174.824219 171.742188 C 172.835938 171.742188 171.21875 173.359375 171.21875 175.351562 L 171.21875 216.902344 C 171.21875 217.472656 170.757812 217.933594 170.191406 217.933594 Z M 170.191406 217.933594 " fill-opacity="1" fill-rule="nonzero"/></g><g clip-path="url(#a2b16fe511)"><path fill="#000000" d="M 222.085938 221.742188 L 173.371094 221.742188 C 172.042969 221.742188 170.875 221.214844 170.089844 220.261719 C 169.304688 219.3125 169 218.015625 169.25 216.710938 L 174.09375 191.617188 C 174.589844 189.058594 177.09375 186.976562 179.679688 186.976562 L 228.394531 186.976562 C 229.722656 186.976562 230.890625 187.503906 231.679688 188.457031 C 232.460938 189.410156 232.765625 190.703125 232.511719 192.007812 L 227.671875 217.097656 C 227.175781 219.660156 224.667969 221.742188 222.085938 221.742188 Z M 179.679688 189.035156 C 178.058594 189.035156 176.421875 190.398438 176.109375 192.011719 L 171.269531 217.097656 C 171.132812 217.8125 171.277344 218.46875 171.675781 218.949219 C 172.066406 219.421875 172.667969 219.683594 173.371094 219.683594 L 222.085938 219.683594 C 223.707031 219.683594 225.339844 218.320312 225.652344 216.707031 L 230.492188 191.617188 C 230.628906 190.90625 230.488281 190.25 230.089844 189.769531 C 229.699219 189.296875 229.097656 189.035156 228.390625 189.035156 Z M 179.679688 189.035156 " fill-opacity="1" fill-rule="nonzero"/></g><path fill="#000000" d="M 175.132812 192.695312 C 174.566406 192.695312 174.105469 192.234375 174.105469 191.667969 L 174.105469 182.054688 C 174.105469 181.109375 174.871094 180.34375 175.8125 180.34375 L 219.285156 180.34375 C 220.222656 180.34375 220.988281 181.109375 220.988281 182.054688 L 220.988281 188.007812 C 220.988281 188.574219 220.527344 189.035156 219.960938 189.035156 C 219.390625 189.035156 218.933594 188.574219 218.933594 188.007812 L 218.933594 182.402344 L 176.160156 182.402344 L 176.160156 191.667969 C 176.160156 192.234375 175.703125 192.695312 175.132812 192.695312 Z M 175.132812 192.695312 " fill-opacity="1" fill-rule="nonzero"/><g fill="#cc0909" fill-opacity="1"><g transform="translate(178.237874, 205.218781)"><g><path d="M 2.71875 0 L 0.78125 0 L 0.78125 -7.265625 L 5.078125 -7.265625 L 5.078125 -5.6875 L 2.71875 -5.6875 L 2.71875 -4.296875 L 4.890625 -4.296875 L 4.890625 -2.734375 L 2.71875 -2.734375 Z M 2.71875 0 "/></g></g></g><g fill="#cc0909" fill-opacity="1"><g transform="translate(187.286319, 205.218781)"><g><path d="M 7.578125 -3.640625 C 7.578125 -2.421875 7.273438 -1.492188 6.671875 -0.859375 C 6.078125 -0.222656 5.203125 0.09375 4.046875 0.09375 C 2.910156 0.09375 2.035156 -0.222656 1.421875 -0.859375 C 0.816406 -1.492188 0.515625 -2.425781 0.515625 -3.65625 C 0.515625 -4.863281 0.816406 -5.785156 1.421875 -6.421875 C 2.023438 -7.054688 2.90625 -7.375 4.0625 -7.375 C 5.21875 -7.375 6.09375 -7.054688 6.6875 -6.421875 C 7.28125 -5.796875 7.578125 -4.867188 7.578125 -3.640625 Z M 2.578125 -3.640625 C 2.578125 -2.234375 3.066406 -1.53125 4.046875 -1.53125 C 4.546875 -1.53125 4.914062 -1.703125 5.15625 -2.046875 C 5.394531 -2.390625 5.515625 -2.921875 5.515625 -3.640625 C 5.515625 -4.367188 5.390625 -4.90625 5.140625 -5.25 C 4.898438 -5.59375 4.539062 -5.765625 4.0625 -5.765625 C 3.070312 -5.765625 2.578125 -5.054688 2.578125 -3.640625 Z M 2.578125 -3.640625 "/></g></g></g><g fill="#cc0909" fill-opacity="1"><g transform="translate(198.954179, 205.218781)"><g><path d="M 0.78125 0 L 0.78125 -7.265625 L 2.75 -7.265625 L 2.75 -1.578125 L 5.546875 -1.578125 L 5.546875 0 Z M 0.78125 0 "/></g></g></g><g fill="#cc0909" fill-opacity="1"><g transform="translate(208.439194, 205.218781)"><g><path d="M 0.78125 0 L 0.78125 -7.265625 L 2.75 -7.265625 L 2.75 0 Z M 0.78125 0 "/></g></g></g><g fill="#cc0909" fill-opacity="1"><g transform="translate(215.547888, 205.218781)"><g><path d="M 7.578125 -3.640625 C 7.578125 -2.421875 7.273438 -1.492188 6.671875 -0.859375 C 6.078125 -0.222656 5.203125 0.09375 4.046875 0.09375 C 2.910156 0.09375 2.035156 -0.222656 1.421875 -0.859375 C 0.816406 -1.492188 0.515625 -2.425781 0.515625 -3.65625 C 0.515625 -4.863281 0.816406 -5.785156 1.421875 -6.421875 C 2.023438 -7.054688 2.90625 -7.375 4.0625 -7.375 C 5.21875 -7.375 6.09375 -7.054688 6.6875 -6.421875 C 7.28125 -5.796875 7.578125 -4.867188 7.578125 -3.640625 Z M 2.578125 -3.640625 C 2.578125 -2.234375 3.066406 -1.53125 4.046875 -1.53125 C 4.546875 -1.53125 4.914062 -1.703125 5.15625 -2.046875 C 5.394531 -2.390625 5.515625 -2.921875 5.515625 -3.640625 C 5.515625 -4.367188 5.390625 -4.90625 5.140625 -5.25 C 4.898438 -5.59375 4.539062 -5.765625 4.0625 -5.765625 C 3.070312 -5.765625 2.578125 -5.054688 2.578125 -3.640625 Z M 2.578125 -3.640625 "/></g></g></g></svg>